<svg width="106" height="56" viewBox="0 0 106 56" fill="none" xmlns="http://www.w3.org/2000/svg">
<path d="M25.1598 46C25.1598 46 22.9949 46 22.9949 43.8351C22.9949 41.6701 25.1598 35.1753 35.9846 35.1753C46.8093 35.1753 48.9743 41.6701 48.9743 43.8351C48.9743 46 46.8093 46 46.8093 46H25.1598ZM42.4794 26.5155C42.4794 28.238 41.7951 29.89 40.5771 31.108C39.3591 32.326 37.7071 33.0103 35.9846 33.0103C34.262 33.0103 32.61 32.326 31.392 31.108C30.174 29.89 29.4897 28.238 29.4897 26.5155C29.4897 24.7929 30.174 23.1409 31.392 21.9229C32.61 20.7049 34.262 20.0206 35.9846 20.0206C37.7071 20.0206 39.3591 20.7049 40.5771 21.9229C41.7951 23.1409 42.4794 24.7929 42.4794 26.5155Z" fill="#01CDBB"/>
<path d="M39.375 10C39.6734 10 39.9595 10.1185 40.1705 10.3295C40.3815 10.5405 40.5 10.8266 40.5 11.125C40.5 11.4234 40.6185 11.7095 40.8295 11.9205C41.0405 12.1315 41.3266 12.25 41.625 12.25C41.9234 12.25 42.2095 12.3685 42.4205 12.5795C42.6315 12.7905 42.75 13.0766 42.75 13.375V14.5C42.75 14.7984 42.6315 15.0845 42.4205 15.2955C42.2095 15.5065 41.9234 15.625 41.625 15.625H30.375C30.0766 15.625 29.7905 15.5065 29.5795 15.2955C29.3685 15.0845 29.25 14.7984 29.25 14.5V13.375C29.25 13.0766 29.3685 12.7905 29.5795 12.5795C29.7905 12.3685 30.0766 12.25 30.375 12.25C30.6734 12.25 30.9595 12.1315 31.1705 11.9205C31.3815 11.7095 31.5 11.4234 31.5 11.125C31.5 10.8266 31.6185 10.5405 31.8295 10.3295C32.0405 10.1185 32.3266 10 32.625 10H39.375Z" fill="#334241"/>
<path d="M24.75 15.625C24.75 15.3266 24.8685 15.0405 25.0795 14.8295C25.2905 14.6185 25.5766 14.5 25.875 14.5H27C27.2984 14.5 27.5845 14.3815 27.7955 14.1705C28.0065 13.9595 28.125 13.6734 28.125 13.375C28.125 13.0766 28.0065 12.7905 27.7955 12.5795C27.5845 12.3685 27.2984 12.25 27 12.25H25.875C24.9799 12.25 24.1214 12.6056 23.4885 13.2385C22.8556 13.8714 22.5 14.7299 22.5 15.625V42.625C22.5 43.5201 22.8556 44.3786 23.4885 45.0115C24.1214 45.6444 24.9799 46 25.875 46H46.125C47.0201 46 47.8786 45.6444 48.5115 45.0115C49.1444 44.3786 49.5 43.5201 49.5 42.625V15.625C49.5 14.7299 49.1444 13.8714 48.5115 13.2385C47.8786 12.6056 47.0201 12.25 46.125 12.25H45C44.7016 12.25 44.4155 12.3685 44.2045 12.5795C43.9935 12.7905 43.875 13.0766 43.875 13.375C43.875 13.6734 43.9935 13.9595 44.2045 14.1705C44.4155 14.3815 44.7016 14.5 45 14.5H46.125C46.4234 14.5 46.7095 14.6185 46.9205 14.8295C47.1315 15.0405 47.25 15.3266 47.25 15.625V42.625C47.25 42.9234 47.1315 43.2095 46.9205 43.4205C46.7095 43.6315 46.4234 43.75 46.125 43.75H25.875C25.5766 43.75 25.2905 43.6315 25.0795 43.4205C24.8685 43.2095 24.75 42.9234 24.75 42.625V15.625Z" fill="#334241"/>
<path d="M75.024 22.14V33.5H71.904V29.052H68.096V33.5H64.976V22.14H68.096V26.332H71.904V22.14H75.024ZM76.352 27.724C76.352 27.0307 76.48 26.3533 76.736 25.692C77.0027 25.02 77.3867 24.412 77.888 23.868C78.3893 23.324 78.9973 22.892 79.712 22.572C80.4373 22.2413 81.2533 22.076 82.16 22.076C83.248 22.076 84.1973 22.3053 85.008 22.764C85.8187 23.212 86.4213 23.8093 86.816 24.556L84.432 26.252C84.2933 25.8787 84.0907 25.5907 83.824 25.388C83.568 25.1853 83.2853 25.0467 82.976 24.972C82.6773 24.8867 82.384 24.844 82.096 24.844C81.648 24.844 81.2587 24.9347 80.928 25.116C80.608 25.2867 80.3413 25.516 80.128 25.804C79.9253 26.092 79.7707 26.412 79.664 26.764C79.568 27.116 79.52 27.468 79.52 27.82C79.52 28.2147 79.5787 28.5933 79.696 28.956C79.8133 29.3187 79.984 29.644 80.208 29.932C80.432 30.2093 80.704 30.428 81.024 30.588C81.3547 30.748 81.7227 30.828 82.128 30.828C82.416 30.828 82.7093 30.7853 83.008 30.7C83.3067 30.604 83.5787 30.4547 83.824 30.252C84.0693 30.0493 84.256 29.7773 84.384 29.436L86.928 30.956C86.704 31.5107 86.3307 31.9853 85.808 32.38C85.2853 32.7747 84.6933 33.0787 84.032 33.292C83.3707 33.4947 82.7147 33.596 82.064 33.596C81.2213 33.596 80.448 33.4307 79.744 33.1C79.0507 32.7587 78.448 32.3107 77.936 31.756C77.4347 31.1907 77.0453 30.5613 76.768 29.868C76.4907 29.164 76.352 28.4493 76.352 27.724ZM88.0385 33.5V22.14H92.9345C93.4892 22.14 94.0012 22.252 94.4705 22.476C94.9398 22.7 95.3452 23.004 95.6865 23.388C96.0278 23.7613 96.2892 24.1827 96.4705 24.652C96.6625 25.1213 96.7585 25.596 96.7585 26.076C96.7585 26.748 96.5985 27.3827 96.2785 27.98C95.9692 28.5773 95.5318 29.068 94.9665 29.452C94.4118 29.8253 93.7612 30.012 93.0145 30.012H91.1585V33.5H88.0385ZM91.1585 27.292H92.8065C92.9345 27.292 93.0572 27.2547 93.1745 27.18C93.2918 27.1053 93.3878 26.9773 93.4625 26.796C93.5478 26.6147 93.5905 26.3747 93.5905 26.076C93.5905 25.756 93.5425 25.5107 93.4465 25.34C93.3612 25.1587 93.2492 25.036 93.1105 24.972C92.9825 24.8973 92.8545 24.86 92.7265 24.86H91.1585V27.292Z" fill="black"/>
</svg>
