<svg width="125" height="56" viewBox="0 0 125 56" fill="none" xmlns="http://www.w3.org/2000/svg">
<path d="M29.6598 46C29.6598 46 27.4949 46 27.4949 43.8351C27.4949 41.6701 29.6598 35.1753 40.4846 35.1753C51.3093 35.1753 53.4743 41.6701 53.4743 43.8351C53.4743 46 51.3093 46 51.3093 46H29.6598ZM46.9794 26.5155C46.9794 28.238 46.2951 29.89 45.0771 31.108C43.8591 32.326 42.2071 33.0103 40.4846 33.0103C38.762 33.0103 37.11 32.326 35.892 31.108C34.674 29.89 33.9897 28.238 33.9897 26.5155C33.9897 24.7929 34.674 23.1409 35.892 21.9229C37.11 20.7049 38.762 20.0206 40.4846 20.0206C42.2071 20.0206 43.8591 20.7049 45.0771 21.9229C46.2951 23.1409 46.9794 24.7929 46.9794 26.5155Z" fill="#01CDBB"/>
<path d="M43.875 10C44.1734 10 44.4595 10.1185 44.6705 10.3295C44.8815 10.5405 45 10.8266 45 11.125C45 11.4234 45.1185 11.7095 45.3295 11.9205C45.5405 12.1315 45.8266 12.25 46.125 12.25C46.4234 12.25 46.7095 12.3685 46.9205 12.5795C47.1315 12.7905 47.25 13.0766 47.25 13.375V14.5C47.25 14.7984 47.1315 15.0845 46.9205 15.2955C46.7095 15.5065 46.4234 15.625 46.125 15.625H34.875C34.5766 15.625 34.2905 15.5065 34.0795 15.2955C33.8685 15.0845 33.75 14.7984 33.75 14.5V13.375C33.75 13.0766 33.8685 12.7905 34.0795 12.5795C34.2905 12.3685 34.5766 12.25 34.875 12.25C35.1734 12.25 35.4595 12.1315 35.6705 11.9205C35.8815 11.7095 36 11.4234 36 11.125C36 10.8266 36.1185 10.5405 36.3295 10.3295C36.5405 10.1185 36.8266 10 37.125 10H43.875Z" fill="#334241"/>
<path d="M29.25 15.625C29.25 15.3266 29.3685 15.0405 29.5795 14.8295C29.7905 14.6185 30.0766 14.5 30.375 14.5H31.5C31.7984 14.5 32.0845 14.3815 32.2955 14.1705C32.5065 13.9595 32.625 13.6734 32.625 13.375C32.625 13.0766 32.5065 12.7905 32.2955 12.5795C32.0845 12.3685 31.7984 12.25 31.5 12.25H30.375C29.4799 12.25 28.6214 12.6056 27.9885 13.2385C27.3556 13.8714 27 14.7299 27 15.625V42.625C27 43.5201 27.3556 44.3786 27.9885 45.0115C28.6214 45.6444 29.4799 46 30.375 46H50.625C51.5201 46 52.3786 45.6444 53.0115 45.0115C53.6444 44.3786 54 43.5201 54 42.625V15.625C54 14.7299 53.6444 13.8714 53.0115 13.2385C52.3786 12.6056 51.5201 12.25 50.625 12.25H49.5C49.2016 12.25 48.9155 12.3685 48.7045 12.5795C48.4935 12.7905 48.375 13.0766 48.375 13.375C48.375 13.6734 48.4935 13.9595 48.7045 14.1705C48.9155 14.3815 49.2016 14.5 49.5 14.5H50.625C50.9234 14.5 51.2095 14.6185 51.4205 14.8295C51.6315 15.0405 51.75 15.3266 51.75 15.625V42.625C51.75 42.9234 51.6315 43.2095 51.4205 43.4205C51.2095 43.6315 50.9234 43.75 50.625 43.75H30.375C30.0766 43.75 29.7905 43.6315 29.5795 43.4205C29.3685 43.2095 29.25 42.9234 29.25 42.625V15.625Z" fill="#334241"/>
<path d="M107.191 29.038L99.6265 35.6559C98.7351 36.4369 97.3386 35.8022 97.3386 34.6169V21.3811C97.3384 21.1158 97.4146 20.8561 97.5582 20.633C97.7018 20.41 97.9066 20.233 98.1482 20.1234C98.3897 20.0137 98.6578 19.976 98.9202 20.0148C99.1826 20.0536 99.4283 20.1672 99.6278 20.342L107.19 26.9599C107.338 27.0894 107.457 27.2492 107.538 27.4284C107.619 27.6076 107.661 27.8021 107.661 27.999C107.661 28.1958 107.619 28.3904 107.538 28.5696C107.457 28.7488 107.338 28.9085 107.19 29.038H107.191Z" fill="#01CDBB"/>
</svg>
