<svg width="20" height="28" viewBox="0 0 20 28" fill="none" xmlns="http://www.w3.org/2000/svg">
<path d="M2.5 3.99996C2.27899 3.99996 2.06702 4.08776 1.91074 4.24404C1.75446 4.40032 1.66667 4.61228 1.66667 4.83329V24.8333C1.66667 25.0543 1.75446 25.2663 1.91074 25.4225C2.06702 25.5788 2.27899 25.6666 2.5 25.6666H17.5C17.721 25.6666 17.933 25.5788 18.0893 25.4225C18.2455 25.2663 18.3333 25.0543 18.3333 24.8333V4.83329C18.3333 4.61228 18.2455 4.40032 18.0893 4.24404C17.933 4.08776 17.721 3.99996 17.5 3.99996H16.6667C16.4457 3.99996 16.2337 3.91216 16.0774 3.75588C15.9211 3.5996 15.8333 3.38764 15.8333 3.16663C15.8333 2.94561 15.9211 2.73365 16.0774 2.57737C16.2337 2.42109 16.4457 2.33329 16.6667 2.33329H17.5C18.163 2.33329 18.7989 2.59668 19.2678 3.06553C19.7366 3.53437 20 4.17025 20 4.83329V24.8333C20 25.4963 19.7366 26.1322 19.2678 26.6011C18.7989 27.0699 18.163 27.3333 17.5 27.3333H2.5C1.83696 27.3333 1.20107 27.0699 0.732233 26.6011C0.263392 26.1322 0 25.4963 0 24.8333V4.83329C0 4.17025 0.263392 3.53437 0.732233 3.06553C1.20107 2.59668 1.83696 2.33329 2.5 2.33329H3.33333C3.55435 2.33329 3.76631 2.42109 3.92259 2.57737C4.07887 2.73365 4.16667 2.94561 4.16667 3.16663C4.16667 3.38764 4.07887 3.5996 3.92259 3.75588C3.76631 3.91216 3.55435 3.99996 3.33333 3.99996H2.5Z" fill="#01CDBB"/>
<path d="M13.3333 1.49996C13.3333 1.27895 13.2455 1.06698 13.0893 0.910704C12.933 0.754423 12.721 0.666626 12.5 0.666626H7.5C7.27899 0.666626 7.06702 0.754423 6.91074 0.910704C6.75446 1.06698 6.66667 1.27895 6.66667 1.49996C6.66667 1.72097 6.57887 1.93293 6.42259 2.08921C6.26631 2.2455 6.05435 2.33329 5.83333 2.33329C5.61232 2.33329 5.40036 2.42109 5.24408 2.57737C5.0878 2.73365 5 2.94561 5 3.16663V3.99996C5 4.22097 5.0878 4.43293 5.24408 4.58921C5.40036 4.74549 5.61232 4.83329 5.83333 4.83329H14.1667C14.3877 4.83329 14.5996 4.74549 14.7559 4.58921C14.9122 4.43293 15 4.22097 15 3.99996V3.16663C15 2.94561 14.9122 2.73365 14.7559 2.57737C14.5996 2.42109 14.3877 2.33329 14.1667 2.33329C13.9457 2.33329 13.7337 2.2455 13.5774 2.08921C13.4211 1.93293 13.3333 1.72097 13.3333 1.49996Z" fill="#01CDBB"/>
<path d="M8.7963 26.9629C8.7963 26.9629 7.59259 26.9629 7.59259 25.7592C7.59259 24.5555 8.7963 20.9444 13.6111 20.9444C18.4259 20.9444 19.6296 24.5555 19.6296 25.7592C19.6296 26.9629 18.4259 26.9629 18.4259 26.9629H8.7963ZM13.6111 19.7407C14.5688 19.7407 15.4873 19.3602 16.1646 18.683C16.8418 18.0058 17.2222 17.0873 17.2222 16.1296C17.2222 15.1719 16.8418 14.2534 16.1646 13.5761C15.4873 12.8989 14.5688 12.5185 13.6111 12.5185C12.6534 12.5185 11.7349 12.8989 11.0577 13.5761C10.3805 14.2534 10 15.1719 10 16.1296C10 17.0873 10.3805 18.0058 11.0577 18.683C11.7349 19.3602 12.6534 19.7407 13.6111 19.7407Z" fill="#01CDBB"/>
<path fill-rdive="evenodd" clip-rdive="evenodd" d="M6.64889 26.9629C6.47045 26.5871 6.38145 26.1751 6.38889 25.7592C6.38889 24.1282 7.20741 22.449 8.71926 21.2814C7.96465 21.0489 7.17846 20.9352 6.38889 20.9444C1.57407 20.9444 0.37037 24.5555 0.37037 25.7592C0.37037 26.9629 1.57407 26.9629 1.57407 26.9629H6.64889Z" fill="#01CDBB"/>
<path d="M5.78704 19.7407C6.58514 19.7407 7.35056 19.4237 7.9149 18.8593C8.47925 18.295 8.7963 17.5295 8.7963 16.7314C8.7963 15.9333 8.47925 15.1679 7.9149 14.6036C7.35056 14.0392 6.58514 13.7222 5.78704 13.7222C4.98893 13.7222 4.22351 14.0392 3.65917 14.6036C3.09482 15.1679 2.77778 15.9333 2.77778 16.7314C2.77778 17.5295 3.09482 18.295 3.65917 18.8593C4.22351 19.4237 4.98893 19.7407 5.78704 19.7407Z" fill="#01CDBB"/>
</svg>
