<svg width="241" height="322" viewBox="0 0 241 322" fill="none" xmlns="http://www.w3.org/2000/svg">
<path d="M150.625 0C153.288 0 155.842 1.05796 157.726 2.94114C159.609 4.82431 160.667 7.37845 160.667 10.0417C160.667 12.7049 161.725 15.259 163.608 17.1422C165.491 19.0254 168.045 20.0833 170.708 20.0833C173.372 20.0833 175.926 21.1413 177.809 23.0245C179.692 24.9076 180.75 27.4618 180.75 30.125V40.1667C180.75 42.8299 179.692 45.384 177.809 47.2672C175.926 49.1504 173.372 50.2083 170.708 50.2083H70.2917C67.6285 50.2083 65.0743 49.1504 63.1911 47.2672C61.308 45.384 60.25 42.8299 60.25 40.1667V30.125C60.25 27.4618 61.308 24.9076 63.1911 23.0245C65.0743 21.1413 67.6285 20.0833 70.2917 20.0833C72.9549 20.0833 75.509 19.0254 77.3922 17.1422C79.2754 15.259 80.3333 12.7049 80.3333 10.0417C80.3333 7.37845 81.3913 4.82431 83.2745 2.94114C85.1576 1.05796 87.7118 0 90.375 0L150.625 0Z" fill="#334241"/>
<path d="M20.0833 50.2083C20.0833 47.545 21.1413 44.9909 23.0245 43.1077C24.9076 41.2245 27.4618 40.1666 30.125 40.1666H40.1667C42.8299 40.1666 45.384 39.1086 47.2672 37.2255C49.1504 35.3423 50.2083 32.7881 50.2083 30.1249C50.2083 27.4617 49.1504 24.9076 47.2672 23.0244C45.384 21.1412 42.8299 20.0833 40.1667 20.0833H30.125C22.1354 20.0833 14.4729 23.2571 8.82341 28.9067C3.17388 34.5562 0 42.2186 0 50.2083V291.208C0 299.198 3.17388 306.86 8.82341 312.51C14.4729 318.159 22.1354 321.333 30.125 321.333H210.875C218.865 321.333 226.527 318.159 232.177 312.51C237.826 306.86 241 299.198 241 291.208V50.2083C241 42.2186 237.826 34.5562 232.177 28.9067C226.527 23.2571 218.865 20.0833 210.875 20.0833H200.833C198.17 20.0833 195.616 21.1412 193.733 23.0244C191.85 24.9076 190.792 27.4617 190.792 30.1249C190.792 32.7881 191.85 35.3423 193.733 37.2255C195.616 39.1086 198.17 40.1666 200.833 40.1666H210.875C213.538 40.1666 216.092 41.2245 217.976 43.1077C219.859 44.9909 220.917 47.545 220.917 50.2083V291.208C220.917 293.871 219.859 296.426 217.976 298.309C216.092 300.192 213.538 301.25 210.875 301.25H30.125C27.4618 301.25 24.9076 300.192 23.0245 298.309C21.1413 296.426 20.0833 293.871 20.0833 291.208V50.2083Z" fill="#334241"/>
</svg>
